<svg xmlns="http://www.w3.org/2000/svg" preserveAspectRatio="xMinYMid" width="400" height="360">
  <title>Рисунок в пикселях</title>
  <pattern width="9" height="9" id="grid" patternUnits="userSpaceOnUse">
    <path d="M.5 9V.5H9" stroke="#ccc" fill="none"/>
  </pattern>
  <rect width="397" height="352" fill="url(#grid)"/>
  <path d="M.5 352V.5H397M360.5 0v9m-45-9v5m-45-5v9m-45-9v5m-45-5v9m-45-9v5m-45-5v9m-45-9v5M0 45.5h5m4 45H0m0 45h5m4 45H0m0 45h5m4 45H0m0 45h5" fill="none" stroke="#000"/>

  <svg x=".5" y=".5" width="396" height="360" viewBox="0 0 44 40">
    <rect x="6" y="3" width="32" height="32" rx="5" stroke="black" stroke-width="1" fill="none"/>
  </svg>
  <rect x="54.5" y="27.5" width="288" height="288" rx="45" stroke="#ccc" stroke-width="1.5" stroke-dasharray="10 6" fill="none"/>
</svg>