<svg xmlns="http://www.w3.org/2000/svg" viewBox="0 0 40 40">
  <path d="M20 4c-8.836 0-16 7.164-16 16 0 8.837 7.164 16 16 16
      s16-7.163 16-16c0-8.836-7.164-16-16-16z
      m0 4c6.343 0 11.523 4.926 11.957 11.158
      -2.965-3.159-7.217-5.151-11.957-5.151
      -4.741 0-8.992 1.992-11.958 5.152
        .434-6.233 5.615-11.159 11.958-11.159z
      m0 13.989c-1.104 0-1.998-.895-1.998-1.998
      s.895-1.998 1.998-1.998 1.998.895 1.998 1.998
      -.894 1.998-1.998 1.998z
      m-11.228 2.214c.87-.749 1.997-1.206 3.236-1.206 2.759 0 4.995 2.236
         4.995 4.995 0 1.239-.458 2.366-1.208 3.235-3.24-1.213-5.809-3.783
        -7.023-7.024zm15.432 7.025c-.75-.869-1.208-1.996-1.208-3.235 0-2.759
         2.237-4.995 4.996-4.995 1.238 0 2.366.457 3.236 1.206-1.214 3.24
        -3.783 5.81-7.024 7.024z"/>
</svg>